# xmcd CD database file generated by MAGIX_Freedb v0.9beta0
# 
# Track frame offsets:
#      150
#      15125
#      27760
#      41552
#      52992
#      62285
#      75890
#      85742
#      113730
#      132157
#      154575
#      165302
#      175842
#      190767
#      204430
# 
# Disc length: 2875 seconds
# 
# Revision: 0 
# Processed by: cddbd v1.4PL0 Copyright (c) Steve Scherf et al.
# Submitted via: MAGIX_Freedb v0.9beta0
# 
DISCID=9a0b390f
DTITLE=Varios - The Best Of Soul and Rhythm and Blues
DYEAR=1996
DGENRE=
TTITLE0=Jakie Roos - Selfish on
TTITLE1=Jimmy Mccracklin - The Walk
TTITLE2=Sugar Pie Desanto - I Want To Know
TTITLE3=Bobby Moore and The Rhythn Aces - Searching For My Love
TTITLE4=Jan Bradley - Mama Don't Lie
TTITLE5=Fontella Bass and Bobby Mccure - Don't Mess Up a Good Thing
TTITLE6=Johnny Fuller - You Got Me Whistlin
TTITLE7=The Dells - Stay In My Corner
TTITLE8=Harvey and The Moonglows - Ten Commandments Of Love
TTITLE9=Billy Stewart - Summertime
TTITLE10=Etta James - Tell Mama
TTITLE11=Clarence "Frogman Henry" - I Don't Know Why'' But I Do
TTITLE12=The "In" Crowd
TTITLE13=Koko Taylor - Wang Dang Doodle
TTITLE14=Clarence "Frogman Henry" - You Always Hurt The One You Love
EXTD=recopilatorio cd2
EXTT0=
EXTT1=
EXTT2=
EXTT3=
EXTT4=
EXTT5=
EXTT6=
EXTT7=
EXTT8=
EXTT9=
EXTT10=
EXTT11=
EXTT12=
EXTT13=
EXTT14=
PLAYORDER=
